<svg width="156" height="34" viewBox="0 0 156 34" fill="none" xmlns="http://www.w3.org/2000/svg">
<path d="M7.99206 0.736018V27.76H20.9521L20.1361 34H0.120061V0.736018H7.99206ZM53.9761 34V19.744H43.9921V34H36.1201V0.736018H43.9921V13.6H53.9761V0.736018H61.8481V34H53.9761ZM112.503 34H104.775L104.199 20.992C104.039 17.888 103.959 15.12 103.959 12.688C103.959 10.832 104.007 9.07202 104.103 7.40802L98.9674 30.496H91.5274L86.0554 7.40802C86.2474 10.192 86.3434 12.816 86.3434 15.28C86.3434 17.136 86.2954 19.072 86.1994 21.088L85.6234 34H77.9434L80.4394 0.736018H90.3754L95.3674 23.296L100.023 0.736018H110.007L112.503 34ZM139.548 21.28H136.476V34H128.604V0.736018H139.5C144.044 0.736018 147.452 1.56802 149.724 3.23202C152.028 4.89602 153.18 7.44002 153.18 10.864C153.18 13.008 152.668 14.8 151.644 16.24C150.62 17.648 149.004 18.848 146.796 19.84L155.244 34H146.364L139.548 21.28ZM136.476 15.856H139.788C141.548 15.856 142.86 15.456 143.724 14.656C144.62 13.856 145.068 12.592 145.068 10.864C145.068 9.26402 144.588 8.09602 143.628 7.36002C142.7 6.62402 141.26 6.25602 139.308 6.25602H136.476V15.856Z" fill="#141414"/>
</svg>
